STARTFONT 2.1
COMMENT
COMMENT Converted from OpenType font "Q:\font stuff\winfont\Astute Caps.ttf" by "otf2bdf 3.0".
COMMENT
FONT -FreeType-Astute Caps-Medium-R-Normal--28-280-72-72-P-59-ISO10646-1
SIZE 28 72 72
FONTBOUNDINGBOX 35 30 -2 -5
STARTPROPERTIES 19
FOUNDRY "FreeType"
FAMILY_NAME "Astute Caps"
WEIGHT_NAME "Medium"
SLANT "R"
SETWIDTH_NAME "Normal"
ADD_STYLE_NAME ""
PIXEL_SIZE 28
POINT_SIZE 280
RESOLUTION_X 72
RESOLUTION_Y 72
SPACING "P"
AVERAGE_WIDTH 59
CHARSET_REGISTRY "ISO10646"
CHARSET_ENCODING "1"
FONT_ASCENT 19
FONT_DESCENT 0
COPYRIGHT "From the WSI-FONTS Collection.  Copyright (c)1992 W.S.I.  All Rights Reserved.  Redistribution strictly prohibited."
_OTF_FONTFILE "Q:\font stuff\winfont\Astute Caps.ttf"
_OTF_PSNAME "AstuteCaps"
ENDPROPERTIES
CHARS 226
STARTCHAR 0020
ENCODING 32
SWIDTH 142 0
DWIDTH 4 0
BBX 0 0 0 0
BITMAP
ENDCHAR
STARTCHAR 0021
ENCODING 33
SWIDTH 142 0
DWIDTH 4 0
BBX 1 19 2 0
BITMAP
80
80
80
80
80
80
80
80
80
80
80
80
80
80
80
80
80
80
80
ENDCHAR
STARTCHAR 0022
ENCODING 34
SWIDTH 214 0
DWIDTH 6 0
BBX 4 5 1 13
BITMAP
90
90
90
90
90
ENDCHAR
STARTCHAR 0023
ENCODING 35
SWIDTH 250 0
DWIDTH 7 0
BBX 6 19 0 0
BITMAP
28
28
48
48
48
FC
48
48
48
48
FC
48
58
50
D0
90
90
90
90
ENDCHAR
STARTCHAR 0024
ENCODING 36
SWIDTH 250 0
DWIDTH 7 0
BBX 5 21 1 0
BITMAP
20
F8
A8
A8
A8
A0
A0
A0
A0
A0
A0
E0
38
28
28
A8
A8
A8
A8
70
20
ENDCHAR
STARTCHAR 0025
ENCODING 37
SWIDTH 500 0
DWIDTH 14 0
BBX 10 19 2 0
BITMAP
E100
A200
A200
A200
A200
A400
A400
A480
A540
A540
E940
0940
0940
0940
1140
1140
1140
1140
11C0
ENDCHAR
STARTCHAR 0026
ENCODING 38
SWIDTH 250 0
DWIDTH 7 0
BBX 6 19 1 0
BITMAP
70
88
88
88
80
80
80
80
80
70
80
80
80
80
BC
88
88
88
70
ENDCHAR
STARTCHAR 0027
ENCODING 39
SWIDTH 142 0
DWIDTH 4 0
BBX 1 5 2 13
BITMAP
80
80
80
80
80
ENDCHAR
STARTCHAR 0028
ENCODING 40
SWIDTH 142 0
DWIDTH 4 0
BBX 3 19 0 0
BITMAP
20
20
60
40
40
40
80
80
80
80
80
80
80
40
40
40
60
20
20
ENDCHAR
STARTCHAR 0029
ENCODING 41
SWIDTH 142 0
DWIDTH 4 0
BBX 3 19 0 0
BITMAP
80
80
C0
40
40
40
20
20
20
20
20
20
20
40
40
40
C0
80
80
ENDCHAR
STARTCHAR 002A
ENCODING 42
SWIDTH 250 0
DWIDTH 7 0
BBX 5 5 1 13
BITMAP
20
A0
F8
70
50
ENDCHAR
STARTCHAR 002B
ENCODING 43
SWIDTH 500 0
DWIDTH 14 0
BBX 12 13 1 1
BITMAP
0200
0200
0200
0200
0200
0200
FFF0
0200
0200
0200
0200
0200
0200
ENDCHAR
STARTCHAR 002C
ENCODING 44
SWIDTH 142 0
DWIDTH 4 0
BBX 3 5 0 -2
BITMAP
20
60
40
C0
80
ENDCHAR
STARTCHAR 002D
ENCODING 45
SWIDTH 142 0
DWIDTH 4 0
BBX 2 1 1 8
BITMAP
C0
ENDCHAR
STARTCHAR 002E
ENCODING 46
SWIDTH 142 0
DWIDTH 4 0
BBX 2 2 1 0
BITMAP
40
C0
ENDCHAR
STARTCHAR 002F
ENCODING 47
SWIDTH 142 0
DWIDTH 4 0
BBX 3 19 0 0
BITMAP
20
20
20
20
20
40
40
40
40
40
40
40
40
40
80
80
80
80
80
ENDCHAR
STARTCHAR 0030
ENCODING 48
SWIDTH 250 0
DWIDTH 7 0
BBX 5 19 1 0
BITMAP
70
88
88
88
88
88
88
88
88
88
88
88
88
88
88
88
88
88
70
ENDCHAR
STARTCHAR 0031
ENCODING 49
SWIDTH 107 0
DWIDTH 3 0
BBX 1 19 1 0
BITMAP
80
80
80
80
80
80
80
80
80
80
80
80
80
80
80
80
80
80
80
ENDCHAR
STARTCHAR 0032
ENCODING 50
SWIDTH 250 0
DWIDTH 7 0
BBX 5 19 1 0
BITMAP
70
88
88
88
08
08
08
08
08
08
08
78
E0
80
80
80
80
80
F8
ENDCHAR
STARTCHAR 0033
ENCODING 51
SWIDTH 250 0
DWIDTH 7 0
BBX 5 19 1 0
BITMAP
70
88
88
88
08
08
08
08
08
F0
08
08
08
08
88
88
88
88
70
ENDCHAR
STARTCHAR 0034
ENCODING 52
SWIDTH 250 0
DWIDTH 7 0
BBX 5 19 1 0
BITMAP
30
50
50
50
50
50
50
90
90
90
90
90
F8
10
10
10
10
10
10
ENDCHAR
STARTCHAR 0035
ENCODING 53
SWIDTH 250 0
DWIDTH 7 0
BBX 5 19 1 0
BITMAP
F8
80
80
80
80
80
80
F0
08
08
08
08
08
08
08
88
88
88
70
ENDCHAR
STARTCHAR 0036
ENCODING 54
SWIDTH 250 0
DWIDTH 7 0
BBX 5 19 1 0
BITMAP
70
88
88
88
80
80
80
F0
88
88
88
88
88
88
88
88
88
88
70
ENDCHAR
STARTCHAR 0037
ENCODING 55
SWIDTH 250 0
DWIDTH 7 0
BBX 5 19 1 0
BITMAP
F8
08
18
10
10
10
10
30
20
20
20
20
60
40
40
40
C0
80
80
ENDCHAR
STARTCHAR 0038
ENCODING 56
SWIDTH 250 0
DWIDTH 7 0
BBX 5 19 1 0
BITMAP
70
88
88
88
88
88
88
88
88
70
88
88
88
88
88
88
88
88
70
ENDCHAR
STARTCHAR 0039
ENCODING 57
SWIDTH 250 0
DWIDTH 7 0
BBX 5 19 1 0
BITMAP
70
88
88
88
88
88
88
88
88
88
88
78
08
08
08
88
88
88
70
ENDCHAR
STARTCHAR 003A
ENCODING 58
SWIDTH 142 0
DWIDTH 4 0
BBX 2 11 1 1
BITMAP
C0
00
00
00
00
00
00
00
00
00
C0
ENDCHAR
STARTCHAR 003B
ENCODING 59
SWIDTH 142 0
DWIDTH 4 0
BBX 3 13 0 -2
BITMAP
40
C0
00
00
00
00
00
00
20
60
40
C0
80
ENDCHAR
STARTCHAR 003C
ENCODING 60
SWIDTH 285 0
DWIDTH 8 0
BBX 7 11 0 1
BITMAP
02
06
08
30
60
C0
60
30
08
06
02
ENDCHAR
STARTCHAR 003D
ENCODING 61
SWIDTH 500 0
DWIDTH 14 0
BBX 13 5 0 4
BITMAP
FFF8
0000
0000
0000
FFF8
ENDCHAR
STARTCHAR 003E
ENCODING 62
SWIDTH 285 0
DWIDTH 8 0
BBX 7 11 0 1
BITMAP
80
C0
20
18
0C
06
0C
18
20
C0
80
ENDCHAR
STARTCHAR 003F
ENCODING 63
SWIDTH 214 0
DWIDTH 6 0
BBX 4 19 1 0
BITMAP
60
90
90
90
10
10
10
10
10
10
10
10
10
30
20
20
20
20
20
ENDCHAR
STARTCHAR 0040
ENCODING 64
SWIDTH 571 0
DWIDTH 16 0
BBX 14 18 1 0
BITMAP
1FE0
6018
4008
8004
8784
8C84
8884
8884
8884
8884
8884
8884
8884
8884
8884
8884
C884
6778
ENDCHAR
STARTCHAR 0041
ENCODING 65
SWIDTH 250 0
DWIDTH 7 0
BBX 6 19 0 0
BITMAP
38
44
44
44
44
44
44
44
44
44
FC
44
44
44
44
44
44
44
44
ENDCHAR
STARTCHAR 0042
ENCODING 66
SWIDTH 250 0
DWIDTH 7 0
BBX 6 19 0 0
BITMAP
78
44
44
44
44
44
44
44
44
44
F8
44
44
44
44
44
44
44
78
ENDCHAR
STARTCHAR 0043
ENCODING 67
SWIDTH 214 0
DWIDTH 6 0
BBX 4 19 1 0
BITMAP
60
90
90
90
90
80
80
80
80
80
80
80
80
80
90
90
90
90
60
ENDCHAR
STARTCHAR 0044
ENCODING 68
SWIDTH 250 0
DWIDTH 7 0
BBX 5 19 1 0
BITMAP
F0
88
88
88
88
88
88
88
88
88
88
88
88
88
88
88
88
88
F0
ENDCHAR
STARTCHAR 0045
ENCODING 69
SWIDTH 214 0
DWIDTH 6 0
BBX 6 19 0 0
BITMAP
7C
40
40
40
40
40
40
40
40
40
FC
40
40
40
40
40
40
40
7C
ENDCHAR
STARTCHAR 0046
ENCODING 70
SWIDTH 214 0
DWIDTH 6 0
BBX 6 19 0 0
BITMAP
7C
40
40
40
40
40
40
40
40
40
FC
40
40
40
40
40
40
40
40
ENDCHAR
STARTCHAR 0047
ENCODING 71
SWIDTH 250 0
DWIDTH 7 0
BBX 5 19 1 0
BITMAP
70
88
88
88
88
80
80
80
80
80
B8
88
88
88
88
88
88
88
70
ENDCHAR
STARTCHAR 0048
ENCODING 72
SWIDTH 250 0
DWIDTH 7 0
BBX 6 19 0 0
BITMAP
44
44
44
44
44
44
44
44
44
44
FC
44
44
44
44
44
44
44
44
ENDCHAR
STARTCHAR 0049
ENCODING 73
SWIDTH 107 0
DWIDTH 3 0
BBX 1 19 1 0
BITMAP
80
80
80
80
80
80
80
80
80
80
80
80
80
80
80
80
80
80
80
ENDCHAR
STARTCHAR 004A
ENCODING 74
SWIDTH 214 0
DWIDTH 6 0
BBX 5 19 0 0
BITMAP
08
08
08
08
08
08
08
08
08
08
08
08
08
08
88
88
88
88
70
ENDCHAR
STARTCHAR 004B
ENCODING 75
SWIDTH 285 0
DWIDTH 8 0
BBX 8 19 0 0
BITMAP
44
44
44
44
44
44
44
44
44
44
F8
44
44
44
44
44
44
46
43
ENDCHAR
STARTCHAR 004C
ENCODING 76
SWIDTH 214 0
DWIDTH 6 0
BBX 5 19 1 0
BITMAP
80
80
80
80
80
80
80
80
80
80
80
80
80
80
80
80
80
80
F8
ENDCHAR
STARTCHAR 004D
ENCODING 77
SWIDTH 392 0
DWIDTH 11 0
BBX 9 19 1 0
BITMAP
7700
8880
8880
8880
8880
8880
8880
8880
8880
8880
8880
8880
8880
8880
8880
8880
8880
8880
8880
ENDCHAR
STARTCHAR 004E
ENCODING 78
SWIDTH 250 0
DWIDTH 7 0
BBX 5 19 1 0
BITMAP
F0
88
88
88
88
88
88
88
88
88
88
88
88
88
88
88
88
88
88
ENDCHAR
STARTCHAR 004F
ENCODING 79
SWIDTH 250 0
DWIDTH 7 0
BBX 5 19 1 0
BITMAP
70
88
88
88
88
88
88
88
88
88
88
88
88
88
88
88
88
88
70
ENDCHAR
STARTCHAR 0050
ENCODING 80
SWIDTH 250 0
DWIDTH 7 0
BBX 6 19 0 0
BITMAP
78
44
44
44
44
44
44
44
44
44
F8
40
40
40
40
40
40
40
40
ENDCHAR
STARTCHAR 0051
ENCODING 81
SWIDTH 250 0
DWIDTH 7 0
BBX 6 19 1 0
BITMAP
70
88
88
88
88
88
88
88
88
88
88
88
88
88
88
88
A8
98
7C
ENDCHAR
STARTCHAR 0052
ENCODING 82
SWIDTH 285 0
DWIDTH 8 0
BBX 8 19 0 0
BITMAP
78
44
44
44
44
44
44
44
44
44
F8
44
44
44
44
44
44
44
43
ENDCHAR
STARTCHAR 0053
ENCODING 83
SWIDTH 214 0
DWIDTH 6 0
BBX 4 19 1 0
BITMAP
60
90
90
90
80
80
80
80
80
80
C0
30
10
10
90
90
90
90
60
ENDCHAR
STARTCHAR 0054
ENCODING 84
SWIDTH 178 0
DWIDTH 5 0
BBX 5 19 0 0
BITMAP
F8
20
20
20
20
20
20
20
20
20
20
20
20
20
20
20
20
20
20
ENDCHAR
STARTCHAR 0055
ENCODING 85
SWIDTH 214 0
DWIDTH 6 0
BBX 4 19 1 0
BITMAP
90
90
90
90
90
90
90
90
90
90
90
90
90
90
90
90
90
90
60
ENDCHAR
STARTCHAR 0056
ENCODING 86
SWIDTH 214 0
DWIDTH 6 0
BBX 6 19 0 0
BITMAP
84
84
84
8C
CC
48
48
48
48
48
48
78
30
30
30
30
30
30
30
ENDCHAR
STARTCHAR 0057
ENCODING 87
SWIDTH 392 0
DWIDTH 11 0
BBX 9 19 1 0
BITMAP
8880
8880
8880
8880
8880
8880
8880
8880
8880
8880
8880
8880
8880
8880
8880
8880
8880
8880
7700
ENDCHAR
STARTCHAR 0058
ENCODING 88
SWIDTH 214 0
DWIDTH 6 0
BBX 6 19 0 0
BITMAP
84
84
CC
48
48
48
78
30
30
30
30
30
70
48
48
48
CC
84
84
ENDCHAR
STARTCHAR 0059
ENCODING 89
SWIDTH 214 0
DWIDTH 6 0
BBX 4 19 1 0
BITMAP
90
90
90
90
90
90
90
90
90
90
F0
10
10
10
90
90
90
90
60
ENDCHAR
STARTCHAR 005A
ENCODING 90
SWIDTH 214 0
DWIDTH 6 0
BBX 5 19 0 0
BITMAP
F8
08
18
10
10
10
10
20
20
20
20
60
40
40
40
40
C0
80
F8
ENDCHAR
STARTCHAR 005B
ENCODING 91
SWIDTH 142 0
DWIDTH 4 0
BBX 2 19 1 0
BITMAP
C0
80
80
80
80
80
80
80
80
80
80
80
80
80
80
80
80
80
C0
ENDCHAR
STARTCHAR 005C
ENCODING 92
SWIDTH 142 0
DWIDTH 4 0
BBX 3 19 0 0
BITMAP
80
80
80
80
80
40
40
40
40
40
40
40
40
40
20
20
20
20
20
ENDCHAR
STARTCHAR 005D
ENCODING 93
SWIDTH 142 0
DWIDTH 4 0
BBX 2 19 1 0
BITMAP
C0
40
40
40
40
40
40
40
40
40
40
40
40
40
40
40
40
40
C0
ENDCHAR
STARTCHAR 005E
ENCODING 94
SWIDTH 392 0
DWIDTH 11 0
BBX 10 7 0 12
BITMAP
0C00
1E00
1200
2100
6180
4080
C0C0
ENDCHAR
STARTCHAR 005F
ENCODING 95
SWIDTH 392 0
DWIDTH 11 0
BBX 11 1 0 -2
BITMAP
FFE0
ENDCHAR
STARTCHAR 0060
ENCODING 96
SWIDTH 214 0
DWIDTH 6 0
BBX 4 4 1 20
BITMAP
80
C0
30
10
ENDCHAR
STARTCHAR 0061
ENCODING 97
SWIDTH 250 0
DWIDTH 7 0
BBX 6 19 0 0
BITMAP
38
44
44
44
44
44
44
44
44
44
FC
44
44
44
44
44
44
44
44
ENDCHAR
STARTCHAR 0062
ENCODING 98
SWIDTH 250 0
DWIDTH 7 0
BBX 6 19 0 0
BITMAP
78
44
44
44
44
44
44
44
44
44
F8
44
44
44
44
44
44
44
78
ENDCHAR
STARTCHAR 0063
ENCODING 99
SWIDTH 214 0
DWIDTH 6 0
BBX 4 19 1 0
BITMAP
60
90
90
90
90
80
80
80
80
80
80
80
80
80
90
90
90
90
60
ENDCHAR
STARTCHAR 0064
ENCODING 100
SWIDTH 250 0
DWIDTH 7 0
BBX 5 19 1 0
BITMAP
F0
88
88
88
88
88
88
88
88
88
88
88
88
88
88
88
88
88
F0
ENDCHAR
STARTCHAR 0065
ENCODING 101
SWIDTH 214 0
DWIDTH 6 0
BBX 6 19 0 0
BITMAP
7C
40
40
40
40
40
40
40
40
40
FC
40
40
40
40
40
40
40
7C
ENDCHAR
STARTCHAR 0066
ENCODING 102
SWIDTH 214 0
DWIDTH 6 0
BBX 6 19 0 0
BITMAP
7C
40
40
40
40
40
40
40
40
40
FC
40
40
40
40
40
40
40
40
ENDCHAR
STARTCHAR 0067
ENCODING 103
SWIDTH 250 0
DWIDTH 7 0
BBX 5 19 1 0
BITMAP
70
88
88
88
88
80
80
80
80
80
B8
88
88
88
88
88
88
88
70
ENDCHAR
STARTCHAR 0068
ENCODING 104
SWIDTH 250 0
DWIDTH 7 0
BBX 6 19 0 0
BITMAP
44
44
44
44
44
44
44
44
44
44
FC
44
44
44
44
44
44
44
44
ENDCHAR
STARTCHAR 0069
ENCODING 105
SWIDTH 107 0
DWIDTH 3 0
BBX 1 19 1 0
BITMAP
80
80
80
80
80
80
80
80
80
80
80
80
80
80
80
80
80
80
80
ENDCHAR
STARTCHAR 006A
ENCODING 106
SWIDTH 214 0
DWIDTH 6 0
BBX 5 19 0 0
BITMAP
08
08
08
08
08
08
08
08
08
08
08
08
08
08
88
88
88
88
70
ENDCHAR
STARTCHAR 006B
ENCODING 107
SWIDTH 285 0
DWIDTH 8 0
BBX 8 19 0 0
BITMAP
44
44
44
44
44
44
44
44
44
44
F8
44
44
44
44
44
44
46
43
ENDCHAR
STARTCHAR 006C
ENCODING 108
SWIDTH 214 0
DWIDTH 6 0
BBX 5 19 1 0
BITMAP
80
80
80
80
80
80
80
80
80
80
80
80
80
80
80
80
80
80
F8
ENDCHAR
STARTCHAR 006D
ENCODING 109
SWIDTH 392 0
DWIDTH 11 0
BBX 9 19 1 0
BITMAP
7700
8880
8880
8880
8880
8880
8880
8880
8880
8880
8880
8880
8880
8880
8880
8880
8880
8880
8880
ENDCHAR
STARTCHAR 006E
ENCODING 110
SWIDTH 250 0
DWIDTH 7 0
BBX 5 19 1 0
BITMAP
F0
88
88
88
88
88
88
88
88
88
88
88
88
88
88
88
88
88
88
ENDCHAR
STARTCHAR 006F
ENCODING 111
SWIDTH 250 0
DWIDTH 7 0
BBX 5 19 1 0
BITMAP
70
88
88
88
88
88
88
88
88
88
88
88
88
88
88
88
88
88
70
ENDCHAR
STARTCHAR 0070
ENCODING 112
SWIDTH 250 0
DWIDTH 7 0
BBX 6 19 0 0
BITMAP
78
44
44
44
44
44
44
44
44
44
F8
40
40
40
40
40
40
40
40
ENDCHAR
STARTCHAR 0071
ENCODING 113
SWIDTH 250 0
DWIDTH 7 0
BBX 6 19 1 0
BITMAP
70
88
88
88
88
88
88
88
88
88
88
88
88
88
88
88
A8
98
7C
ENDCHAR
STARTCHAR 0072
ENCODING 114
SWIDTH 285 0
DWIDTH 8 0
BBX 8 19 0 0
BITMAP
78
44
44
44
44
44
44
44
44
44
F8
44
44
44
44
44
44
44
43
ENDCHAR
STARTCHAR 0073
ENCODING 115
SWIDTH 214 0
DWIDTH 6 0
BBX 4 19 1 0
BITMAP
60
90
90
90
80
80
80
80
80
80
C0
30
10
10
90
90
90
90
60
ENDCHAR
STARTCHAR 0074
ENCODING 116
SWIDTH 178 0
DWIDTH 5 0
BBX 5 19 0 0
BITMAP
F8
20
20
20
20
20
20
20
20
20
20
20
20
20
20
20
20
20
20
ENDCHAR
STARTCHAR 0075
ENCODING 117
SWIDTH 214 0
DWIDTH 6 0
BBX 4 19 1 0
BITMAP
90
90
90
90
90
90
90
90
90
90
90
90
90
90
90
90
90
90
60
ENDCHAR
STARTCHAR 0076
ENCODING 118
SWIDTH 214 0
DWIDTH 6 0
BBX 6 19 0 0
BITMAP
84
84
84
8C
CC
48
48
48
48
48
48
78
30
30
30
30
30
30
30
ENDCHAR
STARTCHAR 0077
ENCODING 119
SWIDTH 392 0
DWIDTH 11 0
BBX 9 19 1 0
BITMAP
8880
8880
8880
8880
8880
8880
8880
8880
8880
8880
8880
8880
8880
8880
8880
8880
8880
8880
7700
ENDCHAR
STARTCHAR 0078
ENCODING 120
SWIDTH 214 0
DWIDTH 6 0
BBX 6 19 0 0
BITMAP
84
84
CC
48
48
48
78
30
30
30
30
30
70
48
48
48
CC
84
84
ENDCHAR
STARTCHAR 0079
ENCODING 121
SWIDTH 214 0
DWIDTH 6 0
BBX 4 19 1 0
BITMAP
90
90
90
90
90
90
90
90
90
90
F0
10
10
10
90
90
90
90
60
ENDCHAR
STARTCHAR 007A
ENCODING 122
SWIDTH 214 0
DWIDTH 6 0
BBX 5 19 0 0
BITMAP
F8
08
18
10
10
10
10
20
20
20
20
60
40
40
40
40
C0
80
F8
ENDCHAR
STARTCHAR 007B
ENCODING 123
SWIDTH 142 0
DWIDTH 4 0
BBX 2 19 1 0
BITMAP
C0
80
80
80
80
80
80
80
80
80
80
80
80
80
80
80
80
80
C0
ENDCHAR
STARTCHAR 007C
ENCODING 124
SWIDTH 250 0
DWIDTH 7 0
BBX 1 22 3 -5
BITMAP
80
80
80
80
80
80
80
80
80
80
80
80
80
80
80
80
80
80
80
80
80
80
ENDCHAR
STARTCHAR 007D
ENCODING 125
SWIDTH 142 0
DWIDTH 4 0
BBX 2 19 1 0
BITMAP
C0
40
40
40
40
40
40
40
40
40
40
40
40
40
40
40
40
40
C0
ENDCHAR
STARTCHAR 007E
ENCODING 126
SWIDTH 500 0
DWIDTH 14 0
BBX 10 5 2 4
BITMAP
7040
D840
8C40
86C0
8380
ENDCHAR
STARTCHAR 00A0
ENCODING 160
SWIDTH 214 0
DWIDTH 6 0
BBX 0 0 0 0
BITMAP
ENDCHAR
STARTCHAR 00A1
ENCODING 161
SWIDTH 142 0
DWIDTH 4 0
BBX 1 19 2 0
BITMAP
80
80
80
80
80
80
80
80
80
80
80
80
80
80
80
80
80
80
80
ENDCHAR
STARTCHAR 00A2
ENCODING 162
SWIDTH 250 0
DWIDTH 7 0
BBX 5 14 1 6
BITMAP
70
B8
A8
A8
A8
A0
A0
A0
A8
A8
A8
A8
78
20
ENDCHAR
STARTCHAR 00A3
ENCODING 163
SWIDTH 250 0
DWIDTH 7 0
BBX 6 19 0 0
BITMAP
38
44
44
44
44
40
60
20
FC
20
20
20
20
60
40
40
40
40
FC
ENDCHAR
STARTCHAR 00A4
ENCODING 164
SWIDTH 392 0
DWIDTH 11 0
BBX 9 9 1 5
BITMAP
BE80
6300
C180
8080
8080
8080
C180
6300
BE80
ENDCHAR
STARTCHAR 00A5
ENCODING 165
SWIDTH 250 0
DWIDTH 7 0
BBX 5 19 1 0
BITMAP
88
88
88
88
88
88
88
88
88
88
F8
20
20
F8
20
F8
20
20
20
ENDCHAR
STARTCHAR 00A6
ENCODING 166
SWIDTH 214 0
DWIDTH 6 0
BBX 1 19 2 -1
BITMAP
80
80
80
80
80
80
80
80
00
00
00
80
80
80
80
80
80
80
80
ENDCHAR
STARTCHAR 00A7
ENCODING 167
SWIDTH 250 0
DWIDTH 7 0
BBX 6 19 0 0
BITMAP
38
44
40
40
60
30
58
88
84
84
C4
68
30
18
08
08
88
88
70
ENDCHAR
STARTCHAR 00A8
ENCODING 168
SWIDTH 214 0
DWIDTH 6 0
BBX 4 1 1 21
BITMAP
F0
ENDCHAR
STARTCHAR 00A9
ENCODING 169
SWIDTH 357 0
DWIDTH 10 0
BBX 8 16 1 0
BITMAP
7C
C3
91
A9
A1
A1
A1
A1
A1
A1
A1
A1
A9
91
C3
7E
ENDCHAR
STARTCHAR 00AA
ENCODING 170
SWIDTH 250 0
DWIDTH 7 0
BBX 4 11 1 8
BITMAP
70
50
50
50
50
50
F0
50
50
50
50
ENDCHAR
STARTCHAR 00AB
ENCODING 171
SWIDTH 250 0
DWIDTH 7 0
BBX 4 10 2 0
BITMAP
50
50
70
E0
A0
A0
A0
60
50
50
ENDCHAR
STARTCHAR 00AC
ENCODING 172
SWIDTH 1214 0
DWIDTH 34 0
BBX 32 22 1 -3
BITMAP
FFFFFFFF
F7DF7ECF
F7DFBECF
F38FBFCF
FBEF9FCF
FBE680CF
FB66C04F
F9F7FE4F
F9F3FE4F
F0F9BECF
EDF9BDCF
CDFBC187
CFFFF9FF
CE1D19E3
84C9105D
C9E5C9DD
C9E5E9C3
C9E5E9F9
C9E5E9FD
CCCDE85D
84186843
FFFFFFFF
ENDCHAR
STARTCHAR 00AD
ENCODING 173
SWIDTH 142 0
DWIDTH 4 0
BBX 2 1 1 8
BITMAP
C0
ENDCHAR
STARTCHAR 00AE
ENCODING 174
SWIDTH 357 0
DWIDTH 10 0
BBX 8 16 1 0
BITMAP
7C
C3
B9
A5
A5
A5
A5
A5
BD
A5
A5
A5
A5
A1
C3
7E
ENDCHAR
STARTCHAR 00AF
ENCODING 175
SWIDTH 214 0
DWIDTH 6 0
BBX 4 1 1 20
BITMAP
F0
ENDCHAR
STARTCHAR 00B0
ENCODING 176
SWIDTH 250 0
DWIDTH 7 0
BBX 6 5 0 14
BITMAP
78
84
84
84
78
ENDCHAR
STARTCHAR 00B1
ENCODING 177
SWIDTH 500 0
DWIDTH 14 0
BBX 12 15 1 -1
BITMAP
0200
0200
0200
0200
0200
0200
FFF0
0200
0200
0200
0200
0200
0200
0000
FFF0
ENDCHAR
STARTCHAR 00B2
ENCODING 178
SWIDTH 178 0
DWIDTH 5 0
BBX 3 11 1 8
BITMAP
E0
A0
20
20
20
20
E0
80
80
80
E0
ENDCHAR
STARTCHAR 00B3
ENCODING 179
SWIDTH 178 0
DWIDTH 5 0
BBX 3 11 1 7
BITMAP
E0
A0
A0
20
20
E0
20
20
20
A0
E0
ENDCHAR
STARTCHAR 00B4
ENCODING 180
SWIDTH 214 0
DWIDTH 6 0
BBX 4 3 1 21
BITMAP
30
40
80
ENDCHAR
STARTCHAR 00B5
ENCODING 181
SWIDTH 214 0
DWIDTH 6 0
BBX 4 12 1 -2
BITMAP
90
90
90
90
90
90
90
90
E0
80
80
80
ENDCHAR
STARTCHAR 00B6
ENCODING 182
SWIDTH 392 0
DWIDTH 11 0
BBX 9 19 1 0
BITMAP
0F80
3D00
7D00
FD00
FD00
FD00
FD00
7D00
3D00
1D00
0500
0500
0500
0500
0500
0500
0500
0500
0500
ENDCHAR
STARTCHAR 00B7
ENCODING 183
SWIDTH 250 0
DWIDTH 7 0
BBX 2 2 2 7
BITMAP
C0
C0
ENDCHAR
STARTCHAR 00B8
ENCODING 184
SWIDTH 214 0
DWIDTH 6 0
BBX 2 4 2 -3
BITMAP
80
40
40
80
ENDCHAR
STARTCHAR 00B9
ENCODING 185
SWIDTH 71 0
DWIDTH 2 0
BBX 1 11 0 7
BITMAP
80
80
80
80
80
80
80
80
80
80
80
ENDCHAR
STARTCHAR 00BA
ENCODING 186
SWIDTH 250 0
DWIDTH 7 0
BBX 3 12 2 8
BITMAP
E0
A0
A0
A0
A0
A0
A0
A0
A0
A0
A0
40
ENDCHAR
STARTCHAR 00BB
ENCODING 187
SWIDTH 250 0
DWIDTH 7 0
BBX 4 10 2 0
BITMAP
A0
A0
60
60
50
50
50
60
A0
A0
ENDCHAR
STARTCHAR 00BC
ENCODING 188
SWIDTH 500 0
DWIDTH 14 0
BBX 9 19 3 0
BITMAP
8400
8400
8400
8800
8800
8800
8800
8B00
9300
9300
9500
1500
2500
2500
2500
2780
2100
4100
4100
ENDCHAR
STARTCHAR 00BD
ENCODING 189
SWIDTH 500 0
DWIDTH 14 0
BBX 9 19 3 -1
BITMAP
8400
8400
8400
8400
8800
8800
8800
8B00
8A80
9280
9080
1080
1080
1080
2300
2200
2200
2200
2380
ENDCHAR
STARTCHAR 00BE
ENCODING 190
SWIDTH 500 0
DWIDTH 14 0
BBX 11 19 2 0
BITMAP
E100
A200
A200
2200
2200
E600
2400
2400
24C0
A4C0
A9C0
E940
0940
0940
1940
11E0
1040
1040
1040
ENDCHAR
STARTCHAR 00BF
ENCODING 191
SWIDTH 214 0
DWIDTH 6 0
BBX 4 19 1 0
BITMAP
20
20
20
20
20
E0
80
80
80
80
80
80
80
80
90
90
90
90
60
ENDCHAR
STARTCHAR 00C0
ENCODING 192
SWIDTH 250 0
DWIDTH 7 0
BBX 6 24 0 0
BITMAP
20
10
0C
00
00
38
44
44
44
44
44
44
44
44
44
FC
44
44
44
44
44
44
44
44
ENDCHAR
STARTCHAR 00C1
ENCODING 193
SWIDTH 250 0
DWIDTH 7 0
BBX 6 24 0 1
BITMAP
18
20
40
00
00
38
44
44
44
44
44
44
44
44
44
FC
44
44
44
44
44
44
44
44
ENDCHAR
STARTCHAR 00C2
ENCODING 194
SWIDTH 250 0
DWIDTH 7 0
BBX 6 23 0 1
BITMAP
78
48
00
00
38
44
44
44
44
44
44
44
44
44
FC
44
44
44
44
44
44
44
44
ENDCHAR
STARTCHAR 00C3
ENCODING 195
SWIDTH 250 0
DWIDTH 7 0
BBX 6 23 0 1
BITMAP
78
08
00
00
38
44
44
44
44
44
44
44
44
44
FC
44
44
44
44
44
44
44
44
ENDCHAR
STARTCHAR 00C4
ENCODING 196
SWIDTH 250 0
DWIDTH 7 0
BBX 6 23 0 1
BITMAP
3C
00
00
00
38
44
44
44
44
44
44
44
44
44
FC
44
44
44
44
44
44
44
44
ENDCHAR
STARTCHAR 00C5
ENCODING 197
SWIDTH 250 0
DWIDTH 7 0
BBX 6 25 0 0
BITMAP
10
28
2C
38
00
00
38
44
44
44
44
44
44
44
44
44
FC
44
44
44
44
44
44
44
44
ENDCHAR
STARTCHAR 00C6
ENCODING 198
SWIDTH 392 0
DWIDTH 11 0
BBX 10 19 1 1
BITMAP
3FC0
4400
4400
4400
4400
4400
4400
4400
4400
4400
FFC0
4400
4400
4400
4400
4400
4400
4400
47C0
ENDCHAR
STARTCHAR 00C7
ENCODING 199
SWIDTH 214 0
DWIDTH 6 0
BBX 4 22 1 -4
BITMAP
60
90
90
90
90
80
80
80
80
80
80
80
80
80
90
90
90
90
60
40
20
60
ENDCHAR
STARTCHAR 00C8
ENCODING 200
SWIDTH 214 0
DWIDTH 6 0
BBX 6 24 0 0
BITMAP
20
18
0C
00
00
7C
40
40
40
40
40
40
40
40
40
FC
40
40
40
40
40
40
40
7C
ENDCHAR
STARTCHAR 00C9
ENCODING 201
SWIDTH 214 0
DWIDTH 6 0
BBX 6 24 0 1
BITMAP
10
20
40
00
00
7C
40
40
40
40
40
40
40
40
40
FC
40
40
40
40
40
40
40
7C
ENDCHAR
STARTCHAR 00CA
ENCODING 202
SWIDTH 214 0
DWIDTH 6 0
BBX 6 23 0 1
BITMAP
70
88
00
00
7C
40
40
40
40
40
40
40
40
40
FC
40
40
40
40
40
40
40
7C
ENDCHAR
STARTCHAR 00CB
ENCODING 203
SWIDTH 214 0
DWIDTH 6 0
BBX 6 23 0 1
BITMAP
68
00
00
00
7C
40
40
40
40
40
40
40
40
40
FC
40
40
40
40
40
40
40
7C
ENDCHAR
STARTCHAR 00CC
ENCODING 204
SWIDTH 107 0
DWIDTH 3 0
BBX 4 24 -2 0
BITMAP
80
60
30
00
00
10
10
10
10
10
10
10
10
10
10
10
10
10
10
10
10
10
10
10
ENDCHAR
STARTCHAR 00CD
ENCODING 205
SWIDTH 107 0
DWIDTH 3 0
BBX 4 24 -1 1
BITMAP
10
60
C0
00
00
20
20
20
20
20
20
20
20
20
20
20
20
20
20
20
20
20
20
20
ENDCHAR
STARTCHAR 00CE
ENCODING 206
SWIDTH 107 0
DWIDTH 3 0
BBX 4 23 -2 1
BITMAP
F0
00
00
00
10
10
10
10
10
10
10
10
10
10
10
10
10
10
10
10
10
10
10
ENDCHAR
STARTCHAR 00CF
ENCODING 207
SWIDTH 107 0
DWIDTH 3 0
BBX 4 23 -1 0
BITMAP
F0
00
00
00
20
20
20
20
20
20
20
20
20
20
20
20
20
20
20
20
20
20
20
ENDCHAR
STARTCHAR 00D0
ENCODING 208
SWIDTH 250 0
DWIDTH 7 0
BBX 6 19 0 0
BITMAP
78
44
44
44
44
44
44
44
44
44
F4
44
44
44
44
44
44
44
78
ENDCHAR
STARTCHAR 00D1
ENCODING 209
SWIDTH 250 0
DWIDTH 7 0
BBX 5 23 1 1
BITMAP
F0
A0
00
00
F0
88
88
88
88
88
88
88
88
88
88
88
88
88
88
88
88
88
88
ENDCHAR
STARTCHAR 00D2
ENCODING 210
SWIDTH 250 0
DWIDTH 7 0
BBX 5 24 1 1
BITMAP
C0
60
10
00
00
70
88
88
88
88
88
88
88
88
88
88
88
88
88
88
88
88
88
70
ENDCHAR
STARTCHAR 00D3
ENCODING 211
SWIDTH 250 0
DWIDTH 7 0
BBX 6 24 0 0
BITMAP
10
60
C0
00
00
38
44
44
44
44
44
44
44
44
44
44
44
44
44
44
44
44
44
38
ENDCHAR
STARTCHAR 00D4
ENCODING 212
SWIDTH 250 0
DWIDTH 7 0
BBX 6 23 0 1
BITMAP
70
88
00
00
38
44
44
44
44
44
44
44
44
44
44
44
44
44
44
44
44
44
38
ENDCHAR
STARTCHAR 00D5
ENCODING 213
SWIDTH 250 0
DWIDTH 7 0
BBX 5 23 1 1
BITMAP
F0
A0
00
00
70
88
88
88
88
88
88
88
88
88
88
88
88
88
88
88
88
88
70
ENDCHAR
STARTCHAR 00D6
ENCODING 214
SWIDTH 250 0
DWIDTH 7 0
BBX 5 23 1 0
BITMAP
F0
00
00
00
70
88
88
88
88
88
88
88
88
88
88
88
88
88
88
88
88
88
70
ENDCHAR
STARTCHAR 00D7
ENCODING 215
SWIDTH 500 0
DWIDTH 14 0
BBX 12 12 1 1
BITMAP
C030
6060
30C0
1980
0F00
0600
0F00
1980
30C0
6060
C030
0010
ENDCHAR
STARTCHAR 00D8
ENCODING 216
SWIDTH 250 0
DWIDTH 7 0
BBX 5 19 1 0
BITMAP
78
98
98
98
98
98
B8
A8
A8
A8
A8
A8
C8
C8
C8
C8
C8
88
F0
ENDCHAR
STARTCHAR 00D9
ENCODING 217
SWIDTH 214 0
DWIDTH 6 0
BBX 4 24 1 1
BITMAP
C0
60
10
00
00
90
90
90
90
90
90
90
90
90
90
90
90
90
90
90
90
90
90
60
ENDCHAR
STARTCHAR 00DA
ENCODING 218
SWIDTH 214 0
DWIDTH 6 0
BBX 5 24 0 1
BITMAP
10
60
C0
00
00
48
48
48
48
48
48
48
48
48
48
48
48
48
48
48
48
48
48
30
ENDCHAR
STARTCHAR 00DB
ENCODING 219
SWIDTH 214 0
DWIDTH 6 0
BBX 5 23 0 1
BITMAP
F0
00
00
00
48
48
48
48
48
48
48
48
48
48
48
48
48
48
48
48
48
48
30
ENDCHAR
STARTCHAR 00DC
ENCODING 220
SWIDTH 214 0
DWIDTH 6 0
BBX 4 23 1 1
BITMAP
F0
00
00
00
90
90
90
90
90
90
90
90
90
90
90
90
90
90
90
90
90
90
60
ENDCHAR
STARTCHAR 00DD
ENCODING 221
SWIDTH 214 0
DWIDTH 6 0
BBX 5 24 0 1
BITMAP
30
60
80
00
00
48
48
48
48
48
48
48
48
48
48
78
08
08
08
48
48
48
48
30
ENDCHAR
STARTCHAR 00DE
ENCODING 222
SWIDTH 250 0
DWIDTH 7 0
BBX 6 19 0 0
BITMAP
40
40
40
78
44
44
44
44
44
44
44
44
44
44
F8
40
40
40
40
ENDCHAR
STARTCHAR 00DF
ENCODING 223
SWIDTH 250 0
DWIDTH 7 0
BBX 5 19 1 0
BITMAP
F0
88
88
88
88
88
88
B8
B8
88
88
88
88
88
88
88
88
C8
F8
ENDCHAR
STARTCHAR 00E0
ENCODING 224
SWIDTH 250 0
DWIDTH 7 0
BBX 6 24 0 1
BITMAP
30
18
04
00
00
38
44
44
44
44
44
44
44
44
44
FC
44
44
44
44
44
44
44
44
ENDCHAR
STARTCHAR 00E1
ENCODING 225
SWIDTH 250 0
DWIDTH 7 0
BBX 6 24 0 1
BITMAP
10
60
C0
00
00
38
44
44
44
44
44
44
44
44
44
FC
44
44
44
44
44
44
44
44
ENDCHAR
STARTCHAR 00E2
ENCODING 226
SWIDTH 250 0
DWIDTH 7 0
BBX 6 23 0 1
BITMAP
78
48
00
00
38
44
44
44
44
44
44
44
44
44
FC
44
44
44
44
44
44
44
44
ENDCHAR
STARTCHAR 00E3
ENCODING 227
SWIDTH 250 0
DWIDTH 7 0
BBX 6 23 0 1
BITMAP
38
00
00
00
38
44
44
44
44
44
44
44
44
44
FC
44
44
44
44
44
44
44
44
ENDCHAR
STARTCHAR 00E4
ENCODING 228
SWIDTH 250 0
DWIDTH 7 0
BBX 6 23 0 0
BITMAP
28
00
00
00
38
44
44
44
44
44
44
44
44
44
FC
44
44
44
44
44
44
44
44
ENDCHAR
STARTCHAR 00E5
ENCODING 229
SWIDTH 250 0
DWIDTH 7 0
BBX 6 24 0 0
BITMAP
38
28
38
00
00
38
44
44
44
44
44
44
44
44
44
FC
44
44
44
44
44
44
44
44
ENDCHAR
STARTCHAR 00E6
ENCODING 230
SWIDTH 392 0
DWIDTH 11 0
BBX 10 19 1 1
BITMAP
3FC0
4400
4400
4400
4400
4400
4400
4400
4400
4400
FFC0
4400
4400
4400
4400
4400
4400
4400
47C0
ENDCHAR
STARTCHAR 00E7
ENCODING 231
SWIDTH 214 0
DWIDTH 6 0
BBX 4 22 1 -4
BITMAP
60
90
90
90
90
80
80
80
80
80
80
80
80
80
90
90
90
90
60
40
20
60
ENDCHAR
STARTCHAR 00E8
ENCODING 232
SWIDTH 214 0
DWIDTH 6 0
BBX 6 24 0 0
BITMAP
20
30
0C
00
00
7C
40
40
40
40
40
40
40
40
40
FC
40
40
40
40
40
40
40
7C
ENDCHAR
STARTCHAR 00E9
ENCODING 233
SWIDTH 214 0
DWIDTH 6 0
BBX 6 24 0 1
BITMAP
10
60
C0
00
00
7C
40
40
40
40
40
40
40
40
40
FC
40
40
40
40
40
40
40
7C
ENDCHAR
STARTCHAR 00EA
ENCODING 234
SWIDTH 214 0
DWIDTH 6 0
BBX 6 23 0 1
BITMAP
70
88
00
00
7C
40
40
40
40
40
40
40
40
40
FC
40
40
40
40
40
40
40
7C
ENDCHAR
STARTCHAR 00EB
ENCODING 235
SWIDTH 214 0
DWIDTH 6 0
BBX 6 23 0 0
BITMAP
78
00
00
00
7C
40
40
40
40
40
40
40
40
40
FC
40
40
40
40
40
40
40
7C
ENDCHAR
STARTCHAR 00EC
ENCODING 236
SWIDTH 107 0
DWIDTH 3 0
BBX 3 24 -1 1
BITMAP
80
40
20
00
00
20
20
20
20
20
20
20
20
20
20
20
20
20
20
20
20
20
20
20
ENDCHAR
STARTCHAR 00ED
ENCODING 237
SWIDTH 107 0
DWIDTH 3 0
BBX 4 24 -1 1
BITMAP
30
40
80
00
00
20
20
20
20
20
20
20
20
20
20
20
20
20
20
20
20
20
20
20
ENDCHAR
STARTCHAR 00EE
ENCODING 238
SWIDTH 107 0
DWIDTH 3 0
BBX 5 23 -2 0
BITMAP
70
98
00
00
10
10
10
10
10
10
10
10
10
10
10
10
10
10
10
10
10
10
10
ENDCHAR
STARTCHAR 00EF
ENCODING 239
SWIDTH 107 0
DWIDTH 3 0
BBX 4 23 -1 1
BITMAP
F0
00
00
00
20
20
20
20
20
20
20
20
20
20
20
20
20
20
20
20
20
20
20
ENDCHAR
STARTCHAR 00F0
ENCODING 240
SWIDTH 250 0
DWIDTH 7 0
BBX 6 19 0 0
BITMAP
78
44
44
44
44
44
44
44
44
44
F4
44
44
44
44
44
44
44
78
ENDCHAR
STARTCHAR 00F1
ENCODING 241
SWIDTH 250 0
DWIDTH 7 0
BBX 5 23 1 0
BITMAP
D0
B0
00
00
F0
88
88
88
88
88
88
88
88
88
88
88
88
88
88
88
88
88
88
ENDCHAR
STARTCHAR 00F2
ENCODING 242
SWIDTH 250 0
DWIDTH 7 0
BBX 5 24 1 1
BITMAP
40
20
18
00
00
70
88
88
88
88
88
88
88
88
88
88
88
88
88
88
88
88
88
70
ENDCHAR
STARTCHAR 00F3
ENCODING 243
SWIDTH 250 0
DWIDTH 7 0
BBX 6 24 0 1
BITMAP
30
60
80
00
00
38
44
44
44
44
44
44
44
44
44
44
44
44
44
44
44
44
44
38
ENDCHAR
STARTCHAR 00F4
ENCODING 244
SWIDTH 250 0
DWIDTH 7 0
BBX 5 23 1 1
BITMAP
F0
00
00
00
70
88
88
88
88
88
88
88
88
88
88
88
88
88
88
88
88
88
70
ENDCHAR
STARTCHAR 00F5
ENCODING 245
SWIDTH 250 0
DWIDTH 7 0
BBX 5 23 1 1
BITMAP
D0
A0
00
00
70
88
88
88
88
88
88
88
88
88
88
88
88
88
88
88
88
88
70
ENDCHAR
STARTCHAR 00F6
ENCODING 246
SWIDTH 250 0
DWIDTH 7 0
BBX 5 23 1 1
BITMAP
F0
00
00
00
70
88
88
88
88
88
88
88
88
88
88
88
88
88
88
88
88
88
70
ENDCHAR
STARTCHAR 00F7
ENCODING 247
SWIDTH 500 0
DWIDTH 14 0
BBX 13 9 0 2
BITMAP
0200
0200
0000
0000
FFF8
0000
0000
0200
0200
ENDCHAR
STARTCHAR 00F8
ENCODING 248
SWIDTH 250 0
DWIDTH 7 0
BBX 5 19 1 0
BITMAP
78
98
98
98
98
98
B8
A8
A8
A8
A8
A8
C8
C8
C8
C8
C8
88
F0
ENDCHAR
STARTCHAR 00F9
ENCODING 249
SWIDTH 214 0
DWIDTH 6 0
BBX 4 24 1 1
BITMAP
C0
60
10
00
00
90
90
90
90
90
90
90
90
90
90
90
90
90
90
90
90
90
90
60
ENDCHAR
STARTCHAR 00FA
ENCODING 250
SWIDTH 214 0
DWIDTH 6 0
BBX 5 24 0 1
BITMAP
30
60
80
00
00
48
48
48
48
48
48
48
48
48
48
48
48
48
48
48
48
48
48
30
ENDCHAR
STARTCHAR 00FB
ENCODING 251
SWIDTH 214 0
DWIDTH 6 0
BBX 5 23 0 1
BITMAP
F0
00
00
00
48
48
48
48
48
48
48
48
48
48
48
48
48
48
48
48
48
48
30
ENDCHAR
STARTCHAR 00FC
ENCODING 252
SWIDTH 214 0
DWIDTH 6 0
BBX 4 23 1 1
BITMAP
F0
00
00
00
90
90
90
90
90
90
90
90
90
90
90
90
90
90
90
90
90
90
60
ENDCHAR
STARTCHAR 00FD
ENCODING 253
SWIDTH 214 0
DWIDTH 6 0
BBX 5 24 0 0
BITMAP
10
60
C0
00
00
48
48
48
48
48
48
48
48
48
48
78
08
08
08
48
48
48
48
30
ENDCHAR
STARTCHAR 00FE
ENCODING 254
SWIDTH 250 0
DWIDTH 7 0
BBX 6 19 0 0
BITMAP
40
40
40
78
44
44
44
44
44
44
44
44
44
44
F8
40
40
40
40
ENDCHAR
STARTCHAR 00FF
ENCODING 255
SWIDTH 214 0
DWIDTH 6 0
BBX 4 23 1 0
BITMAP
F0
00
00
00
90
90
90
90
90
90
90
90
90
90
F0
10
10
10
90
90
90
90
60
ENDCHAR
STARTCHAR 0131
ENCODING 305
SWIDTH 107 0
DWIDTH 3 0
BBX 1 19 1 0
BITMAP
80
80
80
80
80
80
80
80
80
80
80
80
80
80
80
80
80
80
80
ENDCHAR
STARTCHAR 0141
ENCODING 321
SWIDTH 214 0
DWIDTH 6 0
BBX 6 19 0 0
BITMAP
40
40
40
40
40
40
40
40
50
60
40
C0
40
40
40
40
40
40
7C
ENDCHAR
STARTCHAR 0142
ENCODING 322
SWIDTH 214 0
DWIDTH 6 0
BBX 6 19 0 0
BITMAP
40
40
40
40
40
40
40
40
50
60
40
C0
40
40
40
40
40
40
7C
ENDCHAR
STARTCHAR 0152
ENCODING 338
SWIDTH 357 0
DWIDTH 10 0
BBX 10 19 0 0
BITMAP
7FC0
8400
8400
8400
8400
8400
8400
8400
8400
8400
9FC0
8400
8400
8400
8400
8400
8400
8400
7FC0
ENDCHAR
STARTCHAR 0153
ENCODING 339
SWIDTH 357 0
DWIDTH 10 0
BBX 10 19 0 0
BITMAP
7FC0
8400
8400
8400
8400
8400
8400
8400
8400
8400
9FC0
8400
8400
8400
8400
8400
8400
8400
7FC0
ENDCHAR
STARTCHAR 0160
ENCODING 352
SWIDTH 214 0
DWIDTH 6 0
BBX 5 23 0 1
BITMAP
D8
20
00
00
30
48
48
48
40
40
40
40
40
40
60
18
08
08
48
48
48
48
30
ENDCHAR
STARTCHAR 0161
ENCODING 353
SWIDTH 214 0
DWIDTH 6 0
BBX 5 23 0 1
BITMAP
D8
20
00
00
30
48
48
48
40
40
40
40
40
40
60
18
08
08
48
48
48
48
30
ENDCHAR
STARTCHAR 0178
ENCODING 376
SWIDTH 214 0
DWIDTH 6 0
BBX 4 23 1 1
BITMAP
F0
00
00
00
90
90
90
90
90
90
90
90
90
90
F0
10
10
10
90
90
90
90
60
ENDCHAR
STARTCHAR 017D
ENCODING 381
SWIDTH 214 0
DWIDTH 6 0
BBX 5 23 0 1
BITMAP
F0
20
00
00
F8
08
18
10
10
10
10
20
20
20
20
60
40
40
40
40
C0
80
F8
ENDCHAR
STARTCHAR 017E
ENCODING 382
SWIDTH 214 0
DWIDTH 6 0
BBX 5 23 0 1
BITMAP
F0
00
00
00
F8
08
18
10
10
10
10
20
20
20
20
60
40
40
40
40
C0
80
F8
ENDCHAR
STARTCHAR 0192
ENCODING 402
SWIDTH 250 0
DWIDTH 7 0
BBX 7 19 0 0
BITMAP
1C
12
22
22
20
20
20
20
60
60
F8
40
40
40
40
40
C0
C0
80
ENDCHAR
STARTCHAR 02BA
ENCODING 698
SWIDTH 214 0
DWIDTH 6 0
BBX 6 3 2 21
BITMAP
3C
50
A0
ENDCHAR
STARTCHAR 02C6
ENCODING 710
SWIDTH 214 0
DWIDTH 6 0
BBX 5 2 0 21
BITMAP
70
88
ENDCHAR
STARTCHAR 02C7
ENCODING 711
SWIDTH 214 0
DWIDTH 6 0
BBX 5 2 0 21
BITMAP
D8
20
ENDCHAR
STARTCHAR 02D8
ENCODING 728
SWIDTH 214 0
DWIDTH 6 0
BBX 3 2 2 21
BITMAP
A0
40
ENDCHAR
STARTCHAR 02DA
ENCODING 730
SWIDTH 214 0
DWIDTH 6 0
BBX 4 4 1 21
BITMAP
E0
90
F0
60
ENDCHAR
STARTCHAR 02DC
ENCODING 732
SWIDTH 214 0
DWIDTH 6 0
BBX 4 2 1 21
BITMAP
F0
20
ENDCHAR
STARTCHAR 2013
ENCODING 8211
SWIDTH 250 0
DWIDTH 7 0
BBX 5 1 1 8
BITMAP
F8
ENDCHAR
STARTCHAR 2014
ENCODING 8212
SWIDTH 500 0
DWIDTH 14 0
BBX 13 1 0 8
BITMAP
FFF8
ENDCHAR
STARTCHAR 2018
ENCODING 8216
SWIDTH 142 0
DWIDTH 4 0
BBX 3 4 0 14
BITMAP
80
C0
40
20
ENDCHAR
STARTCHAR 2019
ENCODING 8217
SWIDTH 142 0
DWIDTH 4 0
BBX 3 4 0 14
BITMAP
20
60
40
80
ENDCHAR
STARTCHAR 201A
ENCODING 8218
SWIDTH 142 0
DWIDTH 4 0
BBX 3 5 0 -1
BITMAP
20
60
40
C0
80
ENDCHAR
STARTCHAR 201C
ENCODING 8220
SWIDTH 214 0
DWIDTH 6 0
BBX 5 4 0 14
BITMAP
A0
D0
50
68
ENDCHAR
STARTCHAR 201D
ENCODING 8221
SWIDTH 214 0
DWIDTH 6 0
BBX 5 4 0 14
BITMAP
28
58
D0
B0
ENDCHAR
STARTCHAR 201E
ENCODING 8222
SWIDTH 250 0
DWIDTH 7 0
BBX 4 5 1 0
BITMAP
50
50
60
A0
A0
ENDCHAR
STARTCHAR 2020
ENCODING 8224
SWIDTH 250 0
DWIDTH 7 0
BBX 5 19 1 0
BITMAP
20
20
20
20
F8
20
20
20
20
20
20
20
20
20
20
20
20
20
20
ENDCHAR
STARTCHAR 2021
ENCODING 8225
SWIDTH 250 0
DWIDTH 7 0
BBX 5 19 1 0
BITMAP
20
20
20
20
F8
20
20
20
20
20
20
20
20
20
F8
20
20
20
20
ENDCHAR
STARTCHAR 2022
ENCODING 8226
SWIDTH 392 0
DWIDTH 11 0
BBX 6 6 2 7
BITMAP
78
FC
FC
FC
FC
78
ENDCHAR
STARTCHAR 2026
ENCODING 8230
SWIDTH 321 0
DWIDTH 9 0
BBX 8 2 0 0
BITMAP
89
DB
ENDCHAR
STARTCHAR 2030
ENCODING 8240
SWIDTH 678 0
DWIDTH 19 0
BBX 15 19 2 0
BITMAP
E100
A200
A200
A200
A200
A400
A400
A484
A54A
A54A
E94A
094A
094A
094A
114A
114A
114A
114A
11CE
ENDCHAR
STARTCHAR 2039
ENCODING 8249
SWIDTH 178 0
DWIDTH 5 0
BBX 3 10 1 0
BITMAP
20
60
40
40
C0
80
C0
40
60
20
ENDCHAR
STARTCHAR 203A
ENCODING 8250
SWIDTH 178 0
DWIDTH 5 0
BBX 3 10 1 0
BITMAP
80
C0
40
40
60
20
60
40
C0
80
ENDCHAR
STARTCHAR 2122
ENCODING 8482
SWIDTH 285 0
DWIDTH 8 0
BBX 7 8 0 12
BITMAP
FE
5A
5A
5A
5A
5A
5A
02
ENDCHAR
STARTCHAR 2215
ENCODING 8725
SWIDTH 214 0
DWIDTH 6 0
BBX 5 19 0 0
BITMAP
08
08
08
10
10
10
10
30
20
20
20
20
40
40
40
40
80
80
80
ENDCHAR
STARTCHAR 2219
ENCODING 8729
SWIDTH 250 0
DWIDTH 7 0
BBX 2 2 2 7
BITMAP
C0
C0
ENDCHAR
ENDFONT
